<svg width="30" height="44" viewBox="0 0 30 44" fill="none" xmlns="http://www.w3.org/2000/svg">
<g id="Doby" clip-path="url(#clip0_23_28025)">
<path id="Vector" d="M16.53 8.26998C16.08 7.98998 15.55 7.84998 14.96 7.84998C14.37 7.84998 13.85 7.98998 13.4 8.26998C12.95 8.54998 12.61 8.92998 12.36 9.40998C12.11 9.88998 11.98 10.45 11.98 11.08C11.98 11.71 12.11 12.25 12.36 12.74C12.61 13.23 12.96 13.62 13.4 13.9C13.85 14.18 14.37 14.32 14.96 14.32C15.55 14.32 16.08 14.18 16.53 13.9C16.99 13.62 17.33 13.24 17.57 12.74C17.81 12.25 17.93 11.7 17.93 11.08C17.93 10.46 17.81 9.88998 17.57 9.40998C17.33 8.92998 16.98 8.54998 16.53 8.26998Z" fill="#FF5A62"/>
<path id="Vector_2" d="M25.31 24.87C26.31 23.97 27.18 22.94 27.91 21.76C29.24 19.6 29.91 17.11 29.91 14.31C29.91 11.51 29.24 9.07999 27.91 6.90999C26.58 4.74999 24.79 3.04999 22.54 1.82999C20.29 0.60999 17.78 -0.0100098 15.01 -0.0100098C12.24 -0.0100098 9.73 0.59999 7.46 1.82999C5.19 3.05999 3.38 4.74999 2.03 6.90999C0.68 9.07999 0 11.55 0 14.32C0 17.09 0.68 19.61 2.02 21.77C2.73 22.91 3.58 23.92 4.55 24.8C3.56 25.78 2.76 26.91 2.18 28.18C1.46 29.78 1.09 31.5 1.09 33.34V43.75H10.36V35.93V33.82C10.36 33 10.55 32.25 10.92 31.56C11.29 30.87 11.83 30.3 12.51 29.86C13.2 29.42 14.01 29.2 14.93 29.2C15.85 29.2 16.67 29.42 17.38 29.86C18.09 30.3 18.64 30.87 19.03 31.56C19.42 32.25 19.61 33 19.61 33.82V38.79C19.61 38.79 19.61 38.8 19.61 38.81V43.75H28.81V33.34C28.81 31.5 28.44 29.78 27.69 28.21C27.1 26.96 26.3 25.85 25.3 24.88L25.31 24.87ZM14.95 23.68C13.3 23.68 11.97 22.35 11.97 20.7H17.93C17.93 22.35 16.6 23.68 14.95 23.68ZM20.29 13.42C20.2 13.71 20.09 13.99 19.96 14.25C19.79 14.6 19.59 14.93 19.36 15.22C19.13 15.52 18.87 15.78 18.58 16.02C18.39 16.18 18.18 16.32 17.97 16.46C17.54 16.73 17.07 16.92 16.57 17.06C16.32 17.13 16.06 17.18 15.79 17.21C15.52 17.24 15.25 17.26 14.96 17.26C14.67 17.26 14.4 17.24 14.14 17.21C13.88 17.18 13.62 17.13 13.37 17.06C12.87 16.93 12.41 16.73 11.99 16.46C11.78 16.33 11.58 16.18 11.39 16.02C11.11 15.78 10.85 15.52 10.62 15.22C10.39 14.92 10.18 14.6 10 14.25C9.52 13.31 9.28 12.25 9.28 11.08C9.28 10.48 9.34 9.90999 9.46 9.37999C9.58 8.84999 9.76 8.34999 10 7.88999C10.24 7.42999 10.53 7.01999 10.86 6.64999C11.19 6.28999 11.57 5.96999 12 5.69999C12.21 5.56999 12.44 5.44999 12.67 5.34999C13.02 5.19999 13.38 5.08999 13.77 5.00999C14.16 4.92999 14.56 4.89999 14.99 4.89999C15.42 4.89999 15.82 4.93999 16.21 5.00999C16.6 5.07999 16.97 5.19999 17.32 5.34999C17.55 5.44999 17.78 5.56999 18 5.69999C18.44 5.96999 18.82 6.27999 19.15 6.64999C19.48 7.00999 19.76 7.42999 19.99 7.88999C20.11 8.11999 20.21 8.35999 20.29 8.60999C20.55 9.35999 20.68 10.18 20.68 11.08C20.68 11.92 20.56 12.69 20.32 13.41L20.29 13.42Z" fill="#FF5A62"/>
</g>
<defs>
<clipPath id="clip0_23_28025">
<rect width="29.91" height="43.75" fill="white"/>
</clipPath>
</defs>
</svg>
