<svg width="23" height="23" viewBox="0 0 23 23" fill="none" xmlns="http://www.w3.org/2000/svg">
<g id="black-instagram-icon 1" clip-path="url(#clip0_114_2036)">
<path id="Vector" d="M7.66649 11.507C7.66276 9.39028 9.37599 7.67071 11.4923 7.66703C13.6091 7.6629 15.329 9.37536 15.3331 11.4925C15.3372 13.6097 13.624 15.3289 11.5069 15.333C9.3905 15.337 7.67057 13.6242 7.66649 11.507ZM5.59523 11.5112C5.60156 14.7726 8.25038 17.4106 11.511 17.4042C14.772 17.398 17.4115 14.7499 17.4051 11.4884C17.3988 8.22815 14.7496 5.58858 11.4883 5.59496C8.2276 5.6013 5.58889 8.25047 5.59523 11.5112ZM16.2464 5.35274C16.2479 6.11435 16.8671 6.73104 17.6287 6.72955C18.3906 6.72803 19.0073 6.10914 19.0062 5.34753C19.0047 4.58593 18.3855 3.96888 17.6235 3.97041C16.8615 3.97189 16.2449 4.59114 16.2464 5.35274ZM6.87137 20.8688C5.75021 20.82 5.14138 20.6336 4.73565 20.4775C4.19834 20.2696 3.81493 20.0204 3.4114 19.6198C3.00863 19.2177 2.75859 18.8355 2.54881 18.2993C2.39122 17.8935 2.20156 17.2854 2.149 16.1643C2.092 14.9521 2.07897 14.5885 2.0734 11.5179C2.06742 8.448 2.07861 8.08431 2.13153 6.8711C2.17955 5.75071 2.36701 5.14107 2.52275 4.7357C2.73065 4.19767 2.9792 3.81498 3.38049 3.41149C3.7825 3.00796 4.16478 2.75869 4.70133 2.5489C5.10675 2.39051 5.71481 2.20233 6.83561 2.1491C8.04841 2.09169 8.4117 2.07942 11.4816 2.07345C14.5521 2.06747 14.9158 2.0783 16.129 2.13158C17.2494 2.18036 17.8589 2.36593 18.264 2.5228C18.8016 2.7307 19.185 2.97853 19.5882 3.38054C19.9913 3.78259 20.2414 4.16411 20.4512 4.70183C20.6095 5.10608 20.7977 5.7149 20.8506 6.83535C20.9083 8.04815 20.9214 8.41183 20.927 11.4817C20.9329 14.5523 20.9217 14.916 20.8685 16.1285C20.8197 17.2496 20.6337 17.8589 20.4773 18.265C20.2693 18.8019 20.0208 19.1854 19.6191 19.5889C19.2175 19.9909 18.8352 20.2416 18.2983 20.4514C17.8936 20.6094 17.2848 20.798 16.1648 20.8512C14.952 20.9082 14.5886 20.9213 11.5177 20.9269C8.44781 20.9329 8.08457 20.9213 6.87137 20.8688ZM6.73723 0.0796353C5.51361 0.137405 4.67788 0.333354 3.94754 0.619551C3.19155 0.914284 2.55069 1.30924 1.91321 1.94937C1.27491 2.58987 0.882924 3.23185 0.590437 3.9886C0.307295 4.72078 0.115388 5.55691 0.0613474 6.7813C0.0077107 8.00794 -0.0045979 8.39917 0.00137671 11.522C0.00735132 14.6444 0.0210974 15.0364 0.0795857 16.2634C0.138074 17.4866 0.333349 18.322 0.619502 19.0527C0.914594 19.8087 1.30919 20.4492 1.94968 21.0871C2.58982 21.725 3.2322 22.1166 3.98932 22.4095C4.72073 22.6923 5.55718 22.8849 6.78121 22.9386C8.0078 22.9926 8.39939 23.0045 11.5214 22.9986C14.6449 22.9926 15.0365 22.9788 16.2631 22.9207C17.4868 22.8622 18.3217 22.6663 19.0528 22.3808C19.8088 22.085 20.4496 21.6911 21.0872 21.0506C21.7247 20.4104 22.1167 19.7681 22.4092 19.011C22.6924 18.2796 22.885 17.443 22.9382 16.2198C22.9919 14.9924 23.0046 14.6004 22.9986 11.478C22.9926 8.35519 22.9785 7.96396 22.9204 6.73773C22.8623 5.51334 22.6663 4.67833 22.3805 3.94727C22.085 3.19128 21.6908 2.5511 21.0507 1.91285C20.4106 1.27532 19.7682 0.882569 19.0111 0.590846C18.2793 0.307659 17.4431 0.114674 16.2192 0.0617564C14.9925 0.00735596 14.6009 -0.00454834 11.4778 0.00138135C8.35541 0.00735596 7.96382 0.0207427 6.73723 0.0796353Z" fill="#333333"/>
</g>
<defs>
<clipPath id="clip0_114_2036">
<rect width="23" height="23" fill="white"/>
</clipPath>
</defs>
</svg>
