<svg width="16" height="23" viewBox="0 0 16 23" fill="none" xmlns="http://www.w3.org/2000/svg">
<g id="Layer_1" clip-path="url(#clip0_114_1865)">
<path id="Vector" d="M8.84242 4.34763C8.60169 4.20043 8.31818 4.12683 8.00256 4.12683C7.68695 4.12683 7.40878 4.20043 7.16806 4.34763C6.92734 4.49483 6.74546 4.6946 6.61172 4.94695C6.47799 5.19929 6.40845 5.49369 6.40845 5.82489C6.40845 6.15609 6.47799 6.43997 6.61172 6.69757C6.74546 6.95517 6.93269 7.1602 7.16806 7.3074C7.40878 7.4546 7.68695 7.5282 8.00256 7.5282C8.31818 7.5282 8.60169 7.4546 8.84242 7.3074C9.08849 7.1602 9.27037 6.96043 9.39875 6.69757C9.52714 6.43997 9.59133 6.15083 9.59133 5.82489C9.59133 5.49895 9.52714 5.19929 9.39875 4.94695C9.27037 4.6946 9.08314 4.49483 8.84242 4.34763Z" fill="white"/>
<path id="Vector_2" d="M13.5393 13.0748C14.0742 12.6016 14.5396 12.0601 14.9301 11.4398C15.6416 10.3043 16 8.99522 16 7.52322C16 6.05122 15.6416 4.77374 14.9301 3.63294C14.2187 2.4974 13.2611 1.60368 12.0575 0.96231C10.8539 0.320938 9.5112 -0.00500488 8.02942 -0.00500488C6.54764 -0.00500488 5.20495 0.315681 3.99064 0.96231C2.77633 1.60894 1.80809 2.4974 1.08592 3.63294C0.363758 4.77374 0 6.07225 0 7.52848C0 8.98471 0.363758 10.3095 1.08058 11.4451C1.46038 12.0444 1.91508 12.5753 2.43397 13.038C1.90438 13.5532 1.47643 14.1472 1.16617 14.8149C0.78101 15.656 0.583083 16.5603 0.583083 17.5276V23.0003H5.54196V18.8892V17.7799C5.54196 17.3488 5.6436 16.9545 5.84152 16.5918C6.03945 16.2291 6.32832 15.9294 6.69208 15.6981C7.06118 15.4668 7.49448 15.3511 7.98663 15.3511C8.47877 15.3511 8.91742 15.4668 9.29722 15.6981C9.67703 15.9294 9.97125 16.2291 10.1799 16.5918C10.3885 16.9545 10.4901 17.3488 10.4901 17.7799V20.3927C10.4901 20.3927 10.4901 20.398 10.4901 20.4032V23.0003H15.4116V17.5276C15.4116 16.5603 15.2136 15.656 14.8124 14.8307C14.4968 14.1735 14.0689 13.59 13.5339 13.08L13.5393 13.0748ZM7.99733 12.4492C7.11468 12.4492 6.40321 11.75 6.40321 10.8825H9.59144C9.59144 11.75 8.87997 12.4492 7.99733 12.4492ZM10.8539 7.05534C10.8058 7.2078 10.7469 7.355 10.6774 7.49168C10.5864 7.67568 10.4794 7.84917 10.3564 8.00163C10.2334 8.15934 10.0943 8.29603 9.93915 8.4222C9.83751 8.50631 9.72517 8.57991 9.61284 8.65351C9.38282 8.79545 9.13139 8.89534 8.86392 8.96894C8.73019 9.00574 8.59111 9.03202 8.44667 9.0478C8.30224 9.06357 8.15781 9.07408 8.00268 9.07408C7.84754 9.07408 7.70311 9.06357 7.56403 9.0478C7.42494 9.03202 7.28586 9.00574 7.15212 8.96894C6.88465 8.9006 6.63858 8.79545 6.41391 8.65351C6.30157 8.58517 6.19458 8.50631 6.09295 8.4222C5.94316 8.29603 5.80408 8.15934 5.68104 8.00163C5.55801 7.84391 5.44567 7.67568 5.34938 7.49168C5.09261 6.99751 4.96423 6.44025 4.96423 5.82517C4.96423 5.50974 4.99632 5.21008 5.06051 4.93145C5.12471 4.65282 5.221 4.38997 5.34938 4.14814C5.47777 3.90631 5.6329 3.69077 5.80943 3.49625C5.98596 3.307 6.18923 3.13877 6.41926 2.99682C6.53159 2.92848 6.65463 2.8654 6.77767 2.81282C6.96489 2.73397 7.15747 2.67614 7.3661 2.63408C7.57472 2.59202 7.7887 2.57625 8.01872 2.57625C8.24875 2.57625 8.46272 2.59728 8.67135 2.63408C8.87997 2.67088 9.0779 2.73397 9.26513 2.81282C9.38816 2.8654 9.5112 2.92848 9.62889 2.99682C9.86426 3.13877 10.0675 3.30174 10.2441 3.49625C10.4206 3.68551 10.5704 3.90631 10.6934 4.14814C10.7576 4.26905 10.8111 4.39522 10.8539 4.52665C10.993 4.92094 11.0625 5.35202 11.0625 5.82517C11.0625 6.26677 10.9983 6.67157 10.8699 7.05008L10.8539 7.05534Z" fill="white"/>
</g>
<defs>
<clipPath id="clip0_114_1865">
<rect width="16" height="23" fill="white"/>
</clipPath>
</defs>
</svg>
