<svg width="18" height="18" viewBox="0 0 18 18" fill="none" xmlns="http://www.w3.org/2000/svg">
<g id="phone-call-svgrepo-com 1" clip-path="url(#clip0_114_2040)">
<g id="Group">
<g id="Group_2">
<path id="Vector" d="M14.2258 11.1503C13.8573 10.7666 13.4128 10.5615 12.9417 10.5615C12.4744 10.5615 12.0261 10.7628 11.6424 11.1465L10.4419 12.3432C10.3432 12.29 10.2444 12.2407 10.1494 12.1913C10.0126 12.1229 9.88348 12.0583 9.77331 11.9899C8.6488 11.2757 7.62686 10.3449 6.64671 9.14065C6.17184 8.54041 5.85272 8.03514 5.62098 7.52227C5.9325 7.23734 6.22122 6.94102 6.50235 6.65609C6.60872 6.54972 6.7151 6.43955 6.82147 6.33318C7.61926 5.53538 7.61926 4.50205 6.82147 3.70425L5.78434 2.66712C5.66657 2.54935 5.545 2.42778 5.43103 2.30621C5.20309 2.07067 4.96375 1.82754 4.71681 1.59959C4.34831 1.23489 3.90762 1.04114 3.44414 1.04114C2.98066 1.04114 2.53237 1.23489 2.15247 1.59959C2.14867 1.60339 2.14867 1.60339 2.14487 1.60719L0.853204 2.91026C0.366929 3.39653 0.0896004 3.98918 0.028816 4.6768C-0.0623605 5.78612 0.264355 6.81945 0.515091 7.49568C1.13053 9.15585 2.0499 10.6945 3.42134 12.3432C5.08532 14.3301 7.0874 15.8991 9.37441 17.0046C10.2482 17.4187 11.4145 17.9088 12.7176 17.9924C12.7973 17.9962 12.8809 18 12.9569 18C13.8345 18 14.5715 17.6847 15.1489 17.0578C15.1527 17.0502 15.1603 17.0464 15.1641 17.0388C15.3617 16.7995 15.5896 16.5829 15.829 16.3512C15.9923 16.1954 16.1595 16.0321 16.3228 15.8611C16.6989 15.4698 16.8965 15.0139 16.8965 14.5467C16.8965 14.0756 16.6951 13.6235 16.3114 13.2436L14.2258 11.1503ZM15.5858 15.1507C15.582 15.1507 15.582 15.1545 15.5858 15.1507C15.4377 15.3103 15.2857 15.4546 15.1223 15.6142C14.8754 15.8497 14.6247 16.0967 14.3891 16.374C14.0054 16.7843 13.5533 16.978 12.9607 16.978C12.9037 16.978 12.8429 16.978 12.7859 16.9742C11.6576 16.9021 10.6091 16.4614 9.8227 16.0853C7.67245 15.0443 5.78434 13.5665 4.21534 11.6936C2.91987 10.1322 2.0537 8.68857 1.48004 7.13857C1.12673 6.19261 0.997567 5.4556 1.05455 4.76038C1.09254 4.3159 1.2635 3.94739 1.57882 3.63207L2.87428 2.3366C3.06044 2.16185 3.25799 2.06687 3.45174 2.06687C3.69107 2.06687 3.88482 2.21124 4.00639 2.33281C4.01019 2.3366 4.01399 2.3404 4.01779 2.3442C4.24953 2.56075 4.46987 2.78489 4.70161 3.02423C4.81938 3.1458 4.94095 3.26737 5.06252 3.39273L6.09966 4.42987C6.50235 4.83256 6.50235 5.20487 6.09966 5.60756C5.98948 5.71774 5.88311 5.82791 5.77294 5.93428C5.45382 6.26099 5.1499 6.56492 4.81938 6.86124C4.81179 6.86884 4.80419 6.87264 4.80039 6.88024C4.47367 7.20695 4.53446 7.52607 4.60284 7.74261C4.60664 7.75401 4.61044 7.76541 4.61424 7.77681C4.88397 8.43024 5.26387 9.04568 5.84132 9.77889L5.84512 9.78269C6.89365 11.0744 7.99917 12.0811 9.21865 12.8523C9.37441 12.9511 9.53397 13.0309 9.68593 13.1068C9.8227 13.1752 9.95186 13.2398 10.062 13.3082C10.0772 13.3158 10.0924 13.3272 10.1076 13.3348C10.2368 13.3994 10.3584 13.4298 10.4837 13.4298C10.799 13.4298 10.9966 13.2322 11.0612 13.1676L12.3604 11.8684C12.4896 11.7392 12.6948 11.5834 12.9341 11.5834C13.1696 11.5834 13.3634 11.7316 13.4812 11.8608C13.485 11.8646 13.485 11.8646 13.4888 11.8684L15.582 13.9616C15.9733 14.3491 15.9733 14.748 15.5858 15.1507Z" fill="#333333"/>
<path id="Vector_2" d="M9.72782 4.28169C10.7232 4.44885 11.6273 4.91992 12.3491 5.64174C13.071 6.36355 13.5382 7.26772 13.7092 8.26306C13.751 8.5138 13.9675 8.68855 14.2145 8.68855C14.2449 8.68855 14.2715 8.68476 14.3018 8.68096C14.583 8.63537 14.7691 8.36944 14.7235 8.08831C14.5184 6.88402 13.9485 5.7861 13.0786 4.91613C12.2086 4.04615 11.1107 3.4763 9.90637 3.27115C9.62525 3.22556 9.36311 3.41171 9.31373 3.68904C9.26434 3.96637 9.44669 4.2361 9.72782 4.28169Z" fill="#333333"/>
<path id="Vector_3" d="M17.9792 7.94018C17.6411 5.95709 16.7066 4.15255 15.2705 2.71652C13.8345 1.28049 12.03 0.345932 10.0469 0.00781895C9.76955 -0.0415683 9.50742 0.148383 9.45803 0.425712C9.41245 0.706839 9.5986 0.968972 9.87973 1.01836C11.6501 1.31848 13.2647 2.15807 14.5487 3.43834C15.8328 4.72241 16.6686 6.33699 16.9687 8.10734C17.0105 8.35807 17.227 8.53283 17.474 8.53283C17.5044 8.53283 17.531 8.52903 17.5614 8.52523C17.8387 8.48344 18.0286 8.21751 17.9792 7.94018Z" fill="#333333"/>
</g>
</g>
</g>
<defs>
<clipPath id="clip0_114_2040">
<rect width="18" height="18" fill="white"/>
</clipPath>
</defs>
</svg>
