<?xml version="1.0" encoding="UTF-8" standalone="no"?>
<!-- Created with Inkscape (http://www.inkscape.org/) -->

<svg
   width="27.285419mm"
   height="24.075251mm"
   viewBox="0 0 27.285419 24.075251"
   version="1.1"
   id="svg5"
   xml:space="preserve"
   xmlns:inkscape="http://www.inkscape.org/namespaces/inkscape"
   xmlns:sodipodi="http://sodipodi.sourceforge.net/DTD/sodipodi-0.dtd"
   xmlns="http://www.w3.org/2000/svg"
   xmlns:svg="http://www.w3.org/2000/svg"><sodipodi:namedview
     id="namedview7"
     pagecolor="#ffffff"
     bordercolor="#666666"
     borderopacity="1.0"
     inkscape:showpageshadow="2"
     inkscape:pageopacity="0.0"
     inkscape:pagecheckerboard="0"
     inkscape:deskcolor="#d1d1d1"
     inkscape:document-units="mm"
     showgrid="false" /><defs
     id="defs2" /><g
     inkscape:label="Camada 1"
     inkscape:groupmode="layer"
     id="layer1"
     transform="translate(-13.239945,48.182547)"><g
       data-name="1"
       transform="matrix(0.26458333,0,0,0.26458333,-227.16047,-93.690861)"
       id="g2334"><g
         data-name="suitcase"
         id="g2332"
         inkscape:export-filename="g2332.svg"
         inkscape:export-xdpi="96"
         inkscape:export-ydpi="96"><path
           d="m 920.733,178.066 h 18.198 v 6.066 h -18.198 z"
           fill="#00cfc5"
           fill-rule="evenodd"
           data-name="Caminho 53"
           id="path2316" /><path
           d="m 981.395,178.066 h 18.198 v 6.066 h -18.198 z"
           fill="#00cfc5"
           fill-rule="evenodd"
           data-name="Caminho 54"
           id="path2318" /><g
           data-name="Grupo 20"
           id="g2330"><path
             d="m 960.372,212.984 11.744,-3.034 1.517,5.873 -11.745,3.033 z"
             fill="#00cfc5"
             fill-rule="evenodd"
             data-name="Caminho 55"
             id="path2320" /><path
             d="m 920.433,190.199 c -6.525,0 -11.833,5.308 -11.833,11.832 v 49.13 c 0,6.524 5.308,11.832 11.833,11.832 h 6.366 V 190.2 h -6.366 z"
             fill="#00cfc5"
             fill-rule="evenodd"
             data-name="Caminho 56"
             id="path2322" /><path
             d="m 987.46,190.199 h -11.72 l -2.844,-12.795 A 6.86,6.86 0 0 0 966.16,172 h -11.994 a 6.86,6.86 0 0 0 -6.736,5.404 l -2.843,12.795 h -11.722 v 72.794 h 54.596 V 190.2 Z m -10.967,12.358 4.553,17.62 -23.493,6.07 L 953,208.627 Z M 953.35,178.72 a 0.83,0.83 0 0 1 0.815,-0.654 h 11.993 a 0.83,0.83 0 0 1 0.815,0.654 l 2.551,11.479 H 950.8 l 2.551,-11.48 z m -4.31,72.14 c -5.574,0 -10.11,-4.535 -10.11,-10.11 0,-5.574 4.536,-10.11 10.11,-10.11 5.575,0 10.11,4.536 10.11,10.11 0,5.575 -4.535,10.11 -10.11,10.11 z"
             fill="#00cfc5"
             fill-rule="evenodd"
             data-name="Caminho 57"
             id="path2324" /><path
             d="m 943,239.9 a 4,4 0 1 1 0,0.1 z"
             fill="#00cfc5"
             fill-rule="evenodd"
             data-name="Elipse 1"
             id="path2326" /><path
             d="m 999.893,190.199 h -6.366 v 72.794 h 6.366 c 6.525,0 11.833,-5.308 11.833,-11.832 v -49.13 c 0,-6.524 -5.308,-11.832 -11.833,-11.832 z"
             fill="#00cfc5"
             fill-rule="evenodd"
             data-name="Caminho 58"
             id="path2328" /></g></g></g></g></svg>
