<svg width="16" height="16" viewBox="0 0 16 16" fill="none" xmlns="http://www.w3.org/2000/svg">
<g id="email 1">
<g id="Group">
<path id="Vector" d="M14.0456 2.56897H1.95437C0.876776 2.56897 0 3.44575 0 4.52334V11.4768C0 12.5544 0.876776 13.4311 1.95437 13.4311H14.0456C15.1232 13.4311 16 12.5544 16 11.4768V4.52355C16.0002 3.44575 15.1234 2.56897 14.0456 2.56897ZM13.0907 3.84397L8 7.1237L2.90934 3.84397H13.0907ZM14.0456 12.1563H1.95437C1.57973 12.1563 1.275 11.8514 1.275 11.477V4.55967L7.60666 8.63118C7.61516 8.63649 7.6243 8.6401 7.63301 8.64499C7.64215 8.65009 7.6515 8.65498 7.66085 8.65965C7.70994 8.68494 7.76051 8.70534 7.81215 8.71873C7.81746 8.72022 7.82277 8.72085 7.82809 8.72213C7.88482 8.73552 7.9422 8.7438 7.99957 8.7438H8C8.00042 8.7438 8.00085 8.7438 8.00085 8.7438C8.05822 8.7438 8.1156 8.73573 8.17234 8.72213C8.17765 8.72085 8.18296 8.72022 8.18827 8.71873C8.23991 8.70534 8.29027 8.68494 8.33957 8.65965C8.34892 8.65498 8.35827 8.65009 8.36741 8.64499C8.37612 8.6401 8.38526 8.63649 8.39376 8.63118L14.7254 4.55967V11.4768C14.7252 11.8514 14.4203 12.1563 14.0456 12.1563Z" fill="#333333"/>
</g>
</g>
</svg>
